Coordinates
version=1
nRows=7
nColumns=63
inDegrees=yes

Units are S.I. units (second, meters, Newtons, ...)
If the header above contains a line with 'inDegrees', this indicates whether rotational values are in degrees (yes) or radians (no).

endheader
time	pelvis_tilt	pelvis_list	pelvis_rotation	pelvis_tx	pelvis_ty	pelvis_tz	hip_flexion_r	hip_adduction_r	hip_rotation_r	knee_angle_r	knee_angle_r_beta	ankle_angle_r	subtalar_angle_r	mtp_angle_r	hip_flexion_l	hip_adduction_l	hip_rotation_l	knee_angle_l	knee_angle_l_beta	ankle_angle_l	subtalar_angle_l	mtp_angle_l	L5_S1_Flex_Ext	L5_S1_Lat_Bending	L5_S1_axial_rotation	L4_L5_Flex_Ext	L4_L5_Lat_Bending	L4_L5_axial_rotation	L3_L4_Flex_Ext	L3_L4_Lat_Bending	L3_L4_axial_rotation	L2_L3_Flex_Ext	L2_L3_Lat_Bending	L2_L3_axial_rotation	L1_L2_Flex_Ext	L1_L2_Lat_Bending	L1_L2_axial_rotation	L1_T12_Flex_Ext	L1_T12_Lat_Bending	L1_T12_axial_rotation	Abs_r3	Abs_r2	Abs_r1	Abs_t1	Abs_t2	neck_flexion	neck_bending	neck_rotation	arm_flex_r	arm_add_r	arm_rot_r	elbow_flex_r	pro_sup_r	wrist_flex_r	wrist_dev_r	arm_flex_l	arm_add_l	arm_rot_l	elbow_flex_l	pro_sup_l	wrist_flex_l	wrist_dev_l
      4.80000000	      4.71103381	      0.35818355	    176.08018374	      2.45697112	      0.89365230	      0.58152045	     12.60841590	     -2.29125756	    -13.61221102	     21.50151941	      0.37527231	     20.87979126	      1.43889677	      0.00000000	      6.57582954	     -0.13328556	     -3.16732299	     11.06182824	      0.19306532	     15.34494122	    -17.65945625	      0.00000000	      0.00273985	     -0.23302103	     -0.84428068	      0.00508818	     -0.30991797	     -0.89704822	      0.00450130	     -0.56656734	     -0.89704822	      0.00313138	     -0.56656734	     -0.73874560	      0.00254423	     -0.47517649	     -0.68597805	      0.00156555	     -0.36094958	     -0.63321051	      0.01957050	     -2.63598053	     -4.69563586	      0.00000000	      0.00000000	      0.00000000	      0.00000000	      0.00000000	      0.15659788	    -11.49478240	     57.25117450	     19.29200261	     54.48447174	      0.00000000	      5.00000014	    -14.76067609	     -7.78855735	     13.61312554	     23.55572498	     54.45629957	      0.00000000	      5.00000014
      4.83333333	      4.69962713	      0.51431916	    175.95726145	      2.45668152	      0.89367353	      0.58080973	     12.57214353	     -1.98703747	    -12.94823648	     21.34053316	      0.37246257	     20.55136314	      1.05828568	      0.00000000	      6.40529740	     -0.31676724	     -3.42636142	     10.79476372	      0.18840417	     15.47708646	    -17.58204790	      0.00000000	      0.00338307	     -0.22080361	     -0.83730641	      0.00628271	     -0.29366880	     -0.88963806	      0.00555805	     -0.53686189	     -0.88963806	      0.00386652	     -0.53686189	     -0.73264311	      0.00314152	     -0.45026271	     -0.68031146	      0.00193309	     -0.34202479	     -0.62797981	      0.02416496	     -2.49777455	     -4.65684708	      0.00000000	      0.00000000	      0.00000000	      0.00000000	      0.00000000	      0.05662385	    -11.56821404	     56.79270320	     19.56270193	     53.73023217	      0.00000000	      5.00000014	    -14.85505331	     -7.75126627	     13.38829642	     23.58293850	     53.81074018	      0.00000000	      5.00000014
      4.86666667	      4.72194410	      0.80016755	    176.20173975	      2.45645220	      0.89368408	      0.58053276	     12.52232235	     -1.63134545	    -12.44848973	     21.08148329	      0.36794129	     20.18429564	      0.55783831	      0.00000000	      6.35788744	     -0.59717294	     -3.33315804	     10.61922822	      0.18534050	     15.53490386	    -17.56609415	      0.00000000	      0.00347023	     -0.19309974	     -0.88355292	      0.00644457	     -0.25682266	     -0.93877498	      0.00570125	     -0.46950272	     -0.93877498	      0.00396613	     -0.46950272	     -0.77310881	      0.00322246	     -0.39376900	     -0.71788675	      0.00198289	     -0.29911150	     -0.66266469	      0.02478753	     -2.18438292	     -4.91405629	      0.00000000	      0.00000000	      0.00000000	      0.00000000	      0.00000000	      0.04062920	    -11.90134432	     57.05158769	     20.16524347	     53.11464360	      0.00000000	      5.00000014	    -14.91815486	     -7.69301411	     13.25637597	     23.62934098	     53.09517223	      0.00000000	      5.00000014
      4.90000000	      4.72618916	      1.02263379	    176.32407355	      2.45643475	      0.89376177	      0.58008111	     12.63092633	     -1.06646552	    -10.05716197	     20.91450284	      0.36502694	     19.35570467	     -2.37195218	      0.00000000	      6.27464562	     -0.82111370	     -3.26145327	     10.38924200	      0.18132648	     15.43535774	    -17.61597497	      0.00000000	      0.00373366	     -0.17211654	     -0.90638952	      0.00693378	     -0.22891500	     -0.96303887	      0.00613403	     -0.41848416	     -0.96303887	      0.00426720	     -0.41848416	     -0.79309083	      0.00346708	     -0.35098006	     -0.73644149	      0.00213341	     -0.26660853	     -0.67979214	      0.02666917	     -1.94701677	     -5.04106661	      0.00000000	      0.00000000	      0.00000000	      0.00000000	      0.00000000	      0.99121521	    -12.46812443	     62.78550033	     20.47593092	     55.28955237	      0.00000000	      5.00000014	    -14.91035848	     -7.80907673	     13.73879616	     23.67828448	     53.97556022	      0.00000000	      5.00000014
      4.93333333	      4.75356443	      1.11442164	    176.54043773	      2.45651466	      0.89377547	      0.58005328	     12.79787302	     -1.10613411	     -9.71068330	     20.96251351	      0.36586488	     19.27380384	     -2.13983790	      0.00000000	      6.33344159	     -0.89653021	     -3.23446489	     10.34790646	      0.18060504	     15.36526897	    -17.57648290	      0.00000000	      0.00267970	     -0.16024244	     -0.91567150	      0.00497648	     -0.21312244	     -0.97290097	      0.00440248	     -0.38961346	     -0.97290097	      0.00306263	     -0.38961346	     -0.80121256	      0.00248837	     -0.32676638	     -0.74398309	      0.00153118	     -0.24821553	     -0.68675363	      0.01914085	     -1.81269449	     -5.09269019	      0.00000000	      0.00000000	      0.00000000	      0.00000000	      0.00000000	      0.96172773	    -12.54934164	     62.83222349	     20.57889349	     55.30293723	      0.00000000	      5.00000014	    -14.84468646	     -7.81987053	     13.73382216	     23.68677482	     53.98227044	      0.00000000	      5.00000014
      4.96666667	      4.82956621	      1.30387711	    176.42886866	      2.45674686	      0.89355828	      0.58010549	     13.21796188	     -1.03954356	     -9.03808422	     21.40108310	      0.37351936	     19.39604708	     -1.92405681	      0.00000000	      6.40707051	     -1.08765674	     -3.18869670	     10.31181039	      0.17997504	     15.35682315	    -17.65001122	      0.00000000	      0.00270267	     -0.12474441	     -0.85870742	      0.00501913	     -0.16591007	     -0.91237663	      0.00444022	     -0.30330357	     -0.91237663	      0.00308888	     -0.30330357	     -0.75136899	      0.00250970	     -0.25437881	     -0.69769978	      0.00154431	     -0.19322910	     -0.64403056	      0.01930491	     -1.41113375	     -4.77587305	      0.00000000	      0.00000000	      0.00000000	      0.00000000	      0.00000000	      0.92193078	    -12.92787076	     63.04535572	     21.12478993	     55.36889122	      0.00000000	      5.00000014	    -14.70808549	     -7.68051172	     13.82069024	     23.52996735	     54.03888044	      0.00000000	      5.00000014
      5.00000000	      4.92754325	      1.22577147	    176.12036507	      2.45720134	      0.89325768	      0.57997019	     13.68709767	     -1.22580760	     -8.47921629	     21.85953151	      0.38152080	     19.62135958	     -1.46204196	      0.00000000	      6.63241099	     -1.04960286	     -3.54619340	     10.50674144	      0.18337723	     15.37020814	    -17.67796742	      0.00000000	      0.00298491	     -0.11449763	     -0.75484281	      0.00554327	     -0.15228185	     -0.80202049	      0.00490391	     -0.27838954	     -0.80202049	      0.00341145	     -0.27838954	     -0.66048746	      0.00277179	     -0.23348357	     -0.61330979	      0.00170558	     -0.17735683	     -0.56613211	      0.02132090	     -1.29522009	     -4.19820928	      0.00000000	      0.00000000	      0.00000000	      0.00000000	      0.00000000	      0.74914175	    -12.89432750	     62.65034560	     21.00763711	     54.18804028	      0.00000000	      5.00000014	    -14.52094476	     -7.61568217	     13.97971304	     23.35536372	     53.12394334	      0.00000000	      5.00000014
